<svg width="609.1" height="89.2" viewBox="0 0 609.1 89.2" xmlns="http://www.w3.org/2000/svg">
<path d="M 443.8 68.1 L 443.8 2.9 A 2.112 2.112 0 0 1 444.43 1.37 A 2.638 2.638 0 0 1 444.45 1.35 Q 445.1 0.7 445.9 0.7 A 2.49 2.49 0 0 1 446.62 0.799 A 1.936 1.936 0 0 1 447.5 1.35 Q 448.1 2 448.1 2.9 L 448.1 38.3 A 29.485 29.485 0 0 1 450.525 33.625 A 39.355 39.355 0 0 1 453.25 29.85 A 34.06 34.06 0 0 1 459.677 23.71 A 31.514 31.514 0 0 1 461 22.8 A 19.433 19.433 0 0 1 464.428 21 Q 466.753 20.078 469.017 20.006 A 12.053 12.053 0 0 1 469.4 20 Q 476.158 20 479.111 27.519 A 21.875 21.875 0 0 1 479.4 28.3 A 38.177 38.177 0 0 1 480.802 33.712 Q 481.934 39.658 482.211 48.378 A 187.21 187.21 0 0 1 482.3 54.3 A 578.781 578.781 0 0 1 482.286 58.544 Q 482.235 65.5 482 68 A 3.406 3.406 0 0 1 481.853 68.72 A 2.374 2.374 0 0 1 481.35 69.6 Q 480.8 70.2 479.9 70.2 A 1.908 1.908 0 0 1 478.539 69.638 A 2.504 2.504 0 0 1 478.5 69.6 A 2.024 2.024 0 0 1 477.901 68.158 A 2.657 2.657 0 0 1 477.9 68.1 A 74.723 74.723 0 0 1 477.914 66.609 Q 477.938 65.438 478 64.5 L 478.1 55.1 Q 478.1 37.952 475.799 31.357 A 14.914 14.914 0 0 0 475.45 30.45 A 19.778 19.778 0 0 0 474.231 28.015 Q 472.585 25.265 470.543 24.498 A 4.629 4.629 0 0 0 468.9 24.2 Q 464.8 24.2 460.8 27.45 Q 456.8 30.7 453.9 34.8 A 70.86 70.86 0 0 0 452.254 37.226 Q 450.797 39.478 449.983 41.201 A 19.047 19.047 0 0 0 449.8 41.6 Q 448.433 44.575 448.166 48.842 A 34.459 34.459 0 0 0 448.1 51 L 448.1 67.9 A 3.825 3.825 0 0 1 448.044 68.576 Q 447.917 69.283 447.5 69.7 A 2.008 2.008 0 0 1 446.403 70.258 A 2.864 2.864 0 0 1 445.9 70.3 A 1.901 1.901 0 0 1 444.742 69.903 A 2.648 2.648 0 0 1 444.45 69.65 A 2.189 2.189 0 0 1 443.925 68.84 A 2.169 2.169 0 0 1 443.8 68.1 Z M 243.8 68.5 L 244 60.1 Q 241.8 64.5 237.55 67.35 Q 233.3 70.2 228.7 70.3 Q 223 70.3 218.5 67.1 A 20.634 20.634 0 0 1 212.33 60.063 A 25.115 25.115 0 0 1 211.5 58.4 A 27.987 27.987 0 0 1 209.177 49.621 A 34.392 34.392 0 0 1 209 46.1 Q 209 39.5 212.15 33.5 Q 215.3 27.5 220.75 23.85 Q 226.2 20.2 232.7 20.2 Q 236 20.2 239.2 21.3 A 24.102 24.102 0 0 1 242.633 22.772 A 19.542 19.542 0 0 1 244.8 24.1 Q 244.8 21.968 245.112 20.771 A 4.323 4.323 0 0 1 245.3 20.2 A 1.863 1.863 0 0 1 245.94 19.372 Q 246.285 19.128 246.763 19.044 A 3.111 3.111 0 0 1 247.3 19 A 1.646 1.646 0 0 1 248.215 19.284 A 2.415 2.415 0 0 1 248.6 19.6 A 1.953 1.953 0 0 1 249.1 20.485 Q 249.2 20.851 249.2 21.3 L 248.1 69 A 29.333 29.333 0 0 1 247.423 74.904 Q 246.62 78.44 244.876 81.114 A 15.644 15.644 0 0 1 242.35 84.1 A 18.613 18.613 0 0 1 242.263 84.179 Q 236.73 89.2 227.8 89.2 A 52.274 52.274 0 0 1 220.152 88.614 A 64.469 64.469 0 0 1 215.3 87.7 Q 213.698 87.229 213.606 85.78 A 2.841 2.841 0 0 1 213.6 85.6 A 2.218 2.218 0 0 1 213.736 84.81 A 1.993 1.993 0 0 1 214.2 84.1 A 2.024 2.024 0 0 1 215.642 83.501 A 2.657 2.657 0 0 1 215.7 83.5 Q 216.4 83.5 219.55 84.2 A 24.811 24.811 0 0 0 221.934 84.599 Q 224.419 84.9 227.7 84.9 A 26.457 26.457 0 0 0 232.102 84.56 Q 234.425 84.167 236.242 83.32 A 10.728 10.728 0 0 0 239.9 80.6 Q 243.6 76.3 243.8 68.5 Z M 359.533 69.938 A 23.472 23.472 0 0 0 364.3 70.4 A 22.125 22.125 0 0 0 367.168 70.219 A 17.413 17.413 0 0 0 373.15 68.35 A 18.234 18.234 0 0 0 374.532 67.536 A 14.882 14.882 0 0 0 379.1 62.95 A 15.53 15.53 0 0 0 379.705 61.897 A 12.579 12.579 0 0 0 381.2 56 A 13.952 13.952 0 0 0 381.144 54.731 A 10.186 10.186 0 0 0 378 48.05 A 12.705 12.705 0 0 0 376.599 46.907 Q 374.297 45.269 370.388 43.705 A 67.977 67.977 0 0 0 366.2 42.2 Q 360.692 40.438 357.746 38.81 A 13.644 13.644 0 0 1 355.95 37.65 A 8.996 8.996 0 0 1 355.362 37.149 A 6.388 6.388 0 0 1 353.2 32.3 A 9.404 9.404 0 0 1 353.213 31.805 Q 353.4 28.261 356.3 26.25 A 8.154 8.154 0 0 1 356.76 25.954 Q 358.919 24.662 362.461 24.27 A 30.498 30.498 0 0 1 365.8 24.1 A 35.081 35.081 0 0 1 366.848 24.115 Q 371.265 24.247 373.797 25.52 A 5.728 5.728 0 0 1 377.2 31 A 12.003 12.003 0 0 1 377.199 31.151 Q 377.191 31.844 377.1 32.25 A 4.498 4.498 0 0 0 377.039 32.581 A 3.623 3.623 0 0 0 377 33.1 A 1.879 1.879 0 0 0 377.165 33.883 A 2.091 2.091 0 0 0 377.6 34.5 A 1.993 1.993 0 0 0 378.31 34.964 A 2.218 2.218 0 0 0 379.1 35.1 Q 381.3 35.1 381.3 31.1 A 12.018 12.018 0 0 0 381.293 30.671 Q 381.203 28.16 380.054 26.199 A 9.777 9.777 0 0 0 377.25 23.2 Q 374.458 21.201 369.978 20.58 A 31.969 31.969 0 0 0 365.6 20.3 Q 357.9 20.3 353.55 23.55 A 13.215 13.215 0 0 0 353.361 23.694 Q 351.061 25.477 350.033 27.918 A 11.175 11.175 0 0 0 349.2 32.3 Q 349.2 37 352.9 40.25 Q 355.473 42.51 360.076 44.359 A 54.069 54.069 0 0 0 364.5 45.9 A 67.883 67.883 0 0 1 367.685 46.927 Q 372.505 48.624 374.5 50.35 A 7.41 7.41 0 0 1 376.47 52.958 A 7.665 7.665 0 0 1 377.1 56.1 A 8.983 8.983 0 0 1 375.849 60.766 A 10.843 10.843 0 0 1 373.55 63.45 A 12.188 12.188 0 0 1 368.462 66.035 A 16.832 16.832 0 0 1 364.4 66.5 A 19.668 19.668 0 0 1 361.164 66.244 A 14.702 14.702 0 0 1 355.35 64 Q 351.6 61.5 350.2 57.1 A 2.807 2.807 0 0 0 349.992 56.644 Q 349.665 56.075 349.118 55.849 A 2.126 2.126 0 0 0 348.3 55.7 A 1.879 1.879 0 0 0 347.517 55.864 A 2.091 2.091 0 0 0 346.9 56.3 A 2.504 2.504 0 0 0 346.862 56.339 A 1.908 1.908 0 0 0 346.3 57.7 A 4.532 4.532 0 0 0 346.324 58.16 Q 346.462 59.509 347.388 61.215 A 18.295 18.295 0 0 0 348.4 62.85 Q 349.614 64.613 351.497 66.109 A 21.951 21.951 0 0 0 354.6 68.15 A 17.617 17.617 0 0 0 359.533 69.938 Z M 412.1 70.2 Q 406.6 70.2 401.65 67.45 Q 396.7 64.7 393.7 59.8 A 20.526 20.526 0 0 1 390.731 49.946 A 24.843 24.843 0 0 1 390.7 48.7 A 30.422 30.422 0 0 1 393.243 36.643 A 35.658 35.658 0 0 1 393.85 35.3 A 32.644 32.644 0 0 1 398.569 27.988 A 28.579 28.579 0 0 1 402.15 24.5 A 20.857 20.857 0 0 1 406.227 21.86 A 14.935 14.935 0 0 1 412.8 20.3 A 26.103 26.103 0 0 1 416.292 20.52 Q 419.186 20.911 421.3 22 Q 424.381 23.587 427.288 26.83 A 31.566 31.566 0 0 1 427.7 27.3 Q 428.176 27.776 428.199 28.613 A 3.137 3.137 0 0 1 428.2 28.7 A 2.218 2.218 0 0 1 428.064 29.49 A 1.993 1.993 0 0 1 427.6 30.2 A 2.091 2.091 0 0 1 426.983 30.636 A 1.879 1.879 0 0 1 426.2 30.8 A 1.906 1.906 0 0 1 425.545 30.677 Q 425.291 30.584 425.024 30.421 A 4.159 4.159 0 0 1 424.7 30.2 A 22.133 22.133 0 0 0 422.305 27.707 A 16.546 16.546 0 0 0 419.6 25.75 Q 416.975 24.243 413.216 24.201 A 19.38 19.38 0 0 0 413 24.2 A 12.133 12.133 0 0 0 407.225 25.706 A 17.329 17.329 0 0 0 404.3 27.7 A 24.579 24.579 0 0 0 399.16 33.685 A 30.798 30.798 0 0 0 397.45 36.85 Q 394.8 42.5 394.8 48.5 A 19.952 19.952 0 0 0 395.398 53.488 A 15.982 15.982 0 0 0 397.35 58.05 A 17.419 17.419 0 0 0 401.877 62.947 A 16.592 16.592 0 0 0 403.9 64.2 A 18.441 18.441 0 0 0 408.685 65.953 A 16.075 16.075 0 0 0 412 66.3 A 19.443 19.443 0 0 0 419.512 64.897 Q 424.006 63.034 427.2 58.7 A 5.154 5.154 0 0 1 427.73 58.063 Q 428.035 57.756 428.349 57.573 A 1.863 1.863 0 0 1 429.3 57.3 A 2.029 2.029 0 0 1 430.564 57.743 A 2.694 2.694 0 0 1 430.75 57.9 Q 431.4 58.5 431.4 59.3 A 1.047 1.047 0 0 1 431.352 59.589 Q 431.203 60.095 430.6 61 A 19.208 19.208 0 0 1 426.819 64.927 A 26.581 26.581 0 0 1 422.85 67.5 Q 417.8 70.2 412.1 70.2 Z M 126.6 24.5 L 127.1 2.2 A 2.028 2.028 0 0 1 127.736 0.712 A 2.699 2.699 0 0 1 127.8 0.65 Q 128.5 0 129.4 0 A 2.028 2.028 0 0 1 130.889 0.636 A 2.699 2.699 0 0 1 130.95 0.7 Q 131.6 1.4 131.6 2.3 L 130 67.8 Q 130 68.867 129.436 69.511 A 2.089 2.089 0 0 1 129.4 69.55 Q 128.8 70.2 127.8 70.2 A 2.309 2.309 0 0 1 127.054 70.085 A 1.924 1.924 0 0 1 126.2 69.5 A 2.371 2.371 0 0 1 125.715 68.554 Q 125.622 68.206 125.604 67.794 A 4.561 4.561 0 0 1 125.6 67.6 L 125.8 61.1 Q 122.6 65.1 117.85 67.65 Q 113.1 70.2 107.9 70.2 Q 103 70.2 99.05 67.7 A 15.662 15.662 0 0 1 94.6 63.386 A 21.199 21.199 0 0 1 92.75 60.15 Q 90.4 55.1 90.4 47.7 A 47.338 47.338 0 0 1 91.003 39.898 Q 92.238 32.521 96 27.65 A 18.17 18.17 0 0 1 109.245 20.513 A 25.947 25.947 0 0 1 111.7 20.4 Q 115.7 20.4 119.6 21.55 A 34.202 34.202 0 0 1 124.136 23.229 A 28.359 28.359 0 0 1 126.6 24.5 Z M 554.3 68.2 L 554.3 24.5 L 541.7 24.5 A 2.112 2.112 0 0 1 540.171 23.87 A 2.638 2.638 0 0 1 540.15 23.85 Q 539.5 23.2 539.5 22.4 A 2.309 2.309 0 0 1 539.616 21.654 A 1.924 1.924 0 0 1 540.2 20.8 A 2.482 2.482 0 0 1 541.713 20.205 A 3.198 3.198 0 0 1 541.9 20.2 L 554.3 20.2 L 554.3 4.7 Q 554.3 3.8 554.9 3.15 Q 555.5 2.5 556.4 2.5 A 2.49 2.49 0 0 1 557.12 2.599 A 1.936 1.936 0 0 1 558 3.15 Q 558.6 3.8 558.6 4.7 L 558.6 20.2 L 571.4 20.2 Q 572.4 20.2 573 20.8 A 2.008 2.008 0 0 1 573.558 21.897 A 2.864 2.864 0 0 1 573.6 22.4 A 2.029 2.029 0 0 1 573.157 23.664 A 2.694 2.694 0 0 1 573 23.85 Q 572.4 24.5 571.4 24.5 L 558.6 24.5 L 558.6 68.2 A 2.038 2.038 0 0 1 558.418 69.069 A 2.007 2.007 0 0 1 557.95 69.7 Q 557.3 70.3 556.4 70.3 A 2.029 2.029 0 0 1 555.136 69.857 A 2.694 2.694 0 0 1 554.95 69.7 Q 554.3 69.1 554.3 68.2 Z M 582.3 68.2 L 582.3 24.5 L 569.7 24.5 A 2.112 2.112 0 0 1 568.171 23.87 A 2.638 2.638 0 0 1 568.15 23.85 Q 567.5 23.2 567.5 22.4 A 2.309 2.309 0 0 1 567.616 21.654 A 1.924 1.924 0 0 1 568.2 20.8 A 2.482 2.482 0 0 1 569.713 20.205 A 3.198 3.198 0 0 1 569.9 20.2 L 582.3 20.2 L 582.3 4.7 Q 582.3 3.8 582.9 3.15 Q 583.5 2.5 584.4 2.5 A 2.49 2.49 0 0 1 585.12 2.599 A 1.936 1.936 0 0 1 586 3.15 Q 586.6 3.8 586.6 4.7 L 586.6 20.2 L 599.4 20.2 Q 600.4 20.2 601 20.8 A 2.008 2.008 0 0 1 601.558 21.897 A 2.864 2.864 0 0 1 601.6 22.4 A 2.029 2.029 0 0 1 601.157 23.664 A 2.694 2.694 0 0 1 601 23.85 Q 600.4 24.5 599.4 24.5 L 586.6 24.5 L 586.6 68.2 A 2.038 2.038 0 0 1 586.418 69.069 A 2.007 2.007 0 0 1 585.95 69.7 Q 585.3 70.3 584.4 70.3 A 2.029 2.029 0 0 1 583.136 69.857 A 2.694 2.694 0 0 1 582.95 69.7 Q 582.3 69.1 582.3 68.2 Z M 0 68.2 L 0 22.4 A 2.038 2.038 0 0 1 0.182 21.531 A 2.007 2.007 0 0 1 0.65 20.9 A 2.372 2.372 0 0 1 1.259 20.485 A 1.974 1.974 0 0 1 2.1 20.3 A 2.735 2.735 0 0 1 2.882 20.407 A 2.178 2.178 0 0 1 3.75 20.9 Q 4.4 21.5 4.4 22.4 L 4.4 34.9 A 22.045 22.045 0 0 1 6.205 31.273 A 29.886 29.886 0 0 1 8.5 28.05 Q 11.3 24.6 15.1 22.3 A 15.891 15.891 0 0 1 19.843 20.351 A 14.304 14.304 0 0 1 23 20 A 10.08 10.08 0 0 1 26.1 20.436 Q 29.37 21.492 30.264 25.112 A 12.915 12.915 0 0 1 30.6 28.2 L 30.6 30.8 Q 30.6 31.7 30 32.35 Q 29.4 33 28.5 33 Q 26.4 33 26.4 30.7 L 26.4 28.6 Q 26.4 27.222 26.056 26.253 A 3.803 3.803 0 0 0 25.6 25.35 A 2.097 2.097 0 0 0 24.779 24.678 Q 24.025 24.308 22.773 24.224 A 11.63 11.63 0 0 0 22 24.2 Q 15.639 24.2 9.015 32.514 A 48.449 48.449 0 0 0 8.1 33.7 A 14.505 14.505 0 0 0 6.721 35.921 Q 6.008 37.323 5.45 39.05 Q 4.4 42.3 4.4 44.9 L 4.3 68.2 A 1.801 1.801 0 0 1 3.803 69.447 A 2.481 2.481 0 0 1 3.65 69.6 Q 3 70.2 2.1 70.2 A 2.029 2.029 0 0 1 0.836 69.757 A 2.694 2.694 0 0 1 0.65 69.6 Q 0 69 0 68.2 Z M 148.8 68.2 L 148.8 22.4 A 2.038 2.038 0 0 1 148.982 21.531 A 2.007 2.007 0 0 1 149.45 20.9 A 2.372 2.372 0 0 1 150.059 20.485 A 1.974 1.974 0 0 1 150.9 20.3 A 2.735 2.735 0 0 1 151.682 20.407 A 2.178 2.178 0 0 1 152.55 20.9 Q 153.2 21.5 153.2 22.4 L 153.2 34.9 A 22.045 22.045 0 0 1 155.005 31.273 A 29.886 29.886 0 0 1 157.3 28.05 Q 160.1 24.6 163.9 22.3 A 15.891 15.891 0 0 1 168.643 20.351 A 14.304 14.304 0 0 1 171.8 20 A 10.08 10.08 0 0 1 174.9 20.436 Q 178.17 21.492 179.064 25.112 A 12.915 12.915 0 0 1 179.4 28.2 L 179.4 30.8 Q 179.4 31.7 178.8 32.35 Q 178.2 33 177.3 33 Q 175.2 33 175.2 30.7 L 175.2 28.6 Q 175.2 27.222 174.856 26.253 A 3.803 3.803 0 0 0 174.4 25.35 A 2.097 2.097 0 0 0 173.579 24.678 Q 172.825 24.308 171.573 24.224 A 11.63 11.63 0 0 0 170.8 24.2 Q 164.439 24.2 157.815 32.514 A 48.449 48.449 0 0 0 156.9 33.7 A 14.505 14.505 0 0 0 155.521 35.921 Q 154.808 37.323 154.25 39.05 Q 153.2 42.3 153.2 44.9 L 153.1 68.2 A 1.801 1.801 0 0 1 152.603 69.447 A 2.481 2.481 0 0 1 152.45 69.6 Q 151.8 70.2 150.9 70.2 A 2.029 2.029 0 0 1 149.636 69.757 A 2.694 2.694 0 0 1 149.45 69.6 Q 148.8 69 148.8 68.2 Z M 56.6 70.2 Q 51 70.2 46.4 67.15 A 20.71 20.71 0 0 1 39.406 59.257 A 24.529 24.529 0 0 1 39.2 58.85 A 25.34 25.34 0 0 1 36.625 48.521 A 29.812 29.812 0 0 1 36.6 47.3 Q 36.6 40.3 39.7 34.05 A 26.945 26.945 0 0 1 45.172 26.497 A 25.123 25.123 0 0 1 48.15 24.05 Q 53.5 20.3 59.8 20.3 Q 65.3 20.3 69.95 23.4 Q 74.6 26.5 77.25 31.7 A 24.605 24.605 0 0 1 79.894 42.521 A 28.688 28.688 0 0 1 79.9 43.1 Q 79.9 50.4 76.7 56.6 A 27.582 27.582 0 0 1 71.284 63.943 A 25.447 25.447 0 0 1 68.15 66.5 Q 62.8 70.2 56.6 70.2 Z M 282.7 70.2 Q 277.1 70.2 272.5 67.15 A 20.71 20.71 0 0 1 265.506 59.257 A 24.529 24.529 0 0 1 265.3 58.85 A 25.34 25.34 0 0 1 262.725 48.521 A 29.812 29.812 0 0 1 262.7 47.3 Q 262.7 40.3 265.8 34.05 A 26.945 26.945 0 0 1 271.272 26.497 A 25.123 25.123 0 0 1 274.25 24.05 Q 279.6 20.3 285.9 20.3 Q 291.4 20.3 296.05 23.4 Q 300.7 26.5 303.35 31.7 A 24.605 24.605 0 0 1 305.994 42.521 A 28.688 28.688 0 0 1 306 43.1 Q 306 50.4 302.8 56.6 A 27.582 27.582 0 0 1 297.384 63.943 A 25.447 25.447 0 0 1 294.25 66.5 Q 288.9 70.2 282.7 70.2 Z M 515.6 70.2 Q 510 70.2 505.4 67.15 A 20.71 20.71 0 0 1 498.406 59.257 A 24.529 24.529 0 0 1 498.2 58.85 A 25.34 25.34 0 0 1 495.625 48.521 A 29.812 29.812 0 0 1 495.6 47.3 Q 495.6 40.3 498.7 34.05 A 26.945 26.945 0 0 1 504.172 26.497 A 25.123 25.123 0 0 1 507.15 24.05 Q 512.5 20.3 518.8 20.3 Q 524.3 20.3 528.95 23.4 Q 533.6 26.5 536.25 31.7 A 24.605 24.605 0 0 1 538.894 42.521 A 28.688 28.688 0 0 1 538.9 43.1 Q 538.9 50.4 535.7 56.6 A 27.582 27.582 0 0 1 530.284 63.943 A 25.447 25.447 0 0 1 527.15 66.5 Q 521.8 70.2 515.6 70.2 Z M 126 53.3 L 126.5 28.7 A 43.824 43.824 0 0 0 120.814 26.182 Q 116.077 24.5 111.9 24.5 A 18.703 18.703 0 0 0 106.551 25.222 A 13.664 13.664 0 0 0 99 30.75 A 22.607 22.607 0 0 0 95.861 37.714 Q 95.063 40.658 94.814 44.132 A 45.66 45.66 0 0 0 94.7 47.4 A 35.72 35.72 0 0 0 95.052 52.577 Q 95.46 55.356 96.341 57.616 A 16.063 16.063 0 0 0 98.3 61.25 A 11.495 11.495 0 0 0 106.629 66.102 A 15.594 15.594 0 0 0 108.4 66.2 Q 112.9 66.2 116.9 64 A 24.482 24.482 0 0 0 120.727 61.423 A 19.611 19.611 0 0 0 123.4 58.75 A 17.275 17.275 0 0 0 124.617 57.086 Q 125.928 55.025 126 53.3 Z M 56.8 66.4 A 14.665 14.665 0 0 0 64.407 64.24 A 18.723 18.723 0 0 0 65.9 63.25 A 21.798 21.798 0 0 0 71.674 56.864 A 26.584 26.584 0 0 0 72.8 54.8 Q 75.4 49.5 75.4 43.6 Q 75.4 38.5 73.25 34 A 19.712 19.712 0 0 0 69.957 29.078 A 17.599 17.599 0 0 0 67.4 26.8 Q 63.7 24.1 59.3 24.1 A 14.14 14.14 0 0 0 51.795 26.287 A 18.231 18.231 0 0 0 50.25 27.35 A 22.194 22.194 0 0 0 44.368 34.216 A 26.725 26.725 0 0 0 43.5 35.9 Q 41 41.2 41 47.1 A 23.809 23.809 0 0 0 41.883 53.668 A 21.174 21.174 0 0 0 43.05 56.8 A 18.725 18.725 0 0 0 46.031 61.39 A 16.545 16.545 0 0 0 48.7 63.8 Q 52.3 66.4 56.8 66.4 Z M 282.9 66.4 A 14.665 14.665 0 0 0 290.507 64.24 A 18.723 18.723 0 0 0 292 63.25 A 21.798 21.798 0 0 0 297.774 56.864 A 26.584 26.584 0 0 0 298.9 54.8 Q 301.5 49.5 301.5 43.6 Q 301.5 38.5 299.35 34 A 19.712 19.712 0 0 0 296.057 29.078 A 17.599 17.599 0 0 0 293.5 26.8 Q 289.8 24.1 285.4 24.1 A 14.14 14.14 0 0 0 277.895 26.287 A 18.231 18.231 0 0 0 276.35 27.35 A 22.194 22.194 0 0 0 270.468 34.216 A 26.725 26.725 0 0 0 269.6 35.9 Q 267.1 41.2 267.1 47.1 A 23.809 23.809 0 0 0 267.983 53.668 A 21.174 21.174 0 0 0 269.15 56.8 A 18.725 18.725 0 0 0 272.131 61.39 A 16.545 16.545 0 0 0 274.8 63.8 Q 278.4 66.4 282.9 66.4 Z M 515.8 66.4 A 14.665 14.665 0 0 0 523.407 64.24 A 18.723 18.723 0 0 0 524.9 63.25 A 21.798 21.798 0 0 0 530.674 56.864 A 26.584 26.584 0 0 0 531.8 54.8 Q 534.4 49.5 534.4 43.6 Q 534.4 38.5 532.25 34 A 19.712 19.712 0 0 0 528.957 29.078 A 17.599 17.599 0 0 0 526.4 26.8 Q 522.7 24.1 518.3 24.1 A 14.14 14.14 0 0 0 510.795 26.287 A 18.231 18.231 0 0 0 509.25 27.35 A 22.194 22.194 0 0 0 503.368 34.216 A 26.725 26.725 0 0 0 502.5 35.9 Q 500 41.2 500 47.1 A 23.809 23.809 0 0 0 500.883 53.668 A 21.174 21.174 0 0 0 502.05 56.8 A 18.725 18.725 0 0 0 505.031 61.39 A 16.545 16.545 0 0 0 507.7 63.8 Q 511.3 66.4 515.8 66.4 Z M 244.4 43.4 L 244.4 28.2 A 10.221 10.221 0 0 0 242.481 26.793 Q 241.525 26.24 240.351 25.788 A 19.919 19.919 0 0 0 239.4 25.45 A 20.811 20.811 0 0 0 234.754 24.474 A 18.606 18.606 0 0 0 233.1 24.4 Q 227.6 24.4 222.9 27.3 Q 218.2 30.2 215.5 35.25 A 23.07 23.07 0 0 0 212.842 44.968 A 27.531 27.531 0 0 0 212.8 46.5 A 25.481 25.481 0 0 0 213.556 52.554 A 31.149 31.149 0 0 0 214.4 55.4 Q 216 60 219.4 63.15 A 11.732 11.732 0 0 0 226.642 66.25 A 15.537 15.537 0 0 0 227.9 66.3 A 15.225 15.225 0 0 0 235.486 64.252 A 18.044 18.044 0 0 0 235.75 64.1 Q 239.5 61.9 241.95 56.8 Q 244.4 51.7 244.4 43.4 Z M 189.6 67.9 L 190.3 22.6 A 2.272 2.272 0 0 1 190.905 21.05 A 2.932 2.932 0 0 1 190.95 21 A 2.505 2.505 0 0 1 191.437 20.587 A 1.762 1.762 0 0 1 192.4 20.3 A 2.112 2.112 0 0 1 193.93 20.93 A 2.638 2.638 0 0 1 193.95 20.95 A 2.195 2.195 0 0 1 194.594 22.416 A 2.933 2.933 0 0 1 194.6 22.6 L 194 67.9 A 2.272 2.272 0 0 1 193.395 69.451 A 2.932 2.932 0 0 1 193.35 69.5 A 2.256 2.256 0 0 1 192.71 69.991 A 2 2 0 0 1 191.8 70.2 A 1.871 1.871 0 0 1 190.793 69.899 A 2.807 2.807 0 0 1 190.3 69.5 Q 189.6 68.8 189.6 67.9 Z M 190.4 7.9 L 190.5 3.6 A 1.801 1.801 0 0 1 190.998 2.353 A 2.481 2.481 0 0 1 191.15 2.2 A 2.372 2.372 0 0 1 191.759 1.785 A 1.974 1.974 0 0 1 192.6 1.6 A 2.038 2.038 0 0 1 193.469 1.782 A 2.007 2.007 0 0 1 194.1 2.25 A 2.372 2.372 0 0 1 194.516 2.859 A 1.974 1.974 0 0 1 194.7 3.7 L 194.6 8 Q 194.6 8.9 193.95 9.45 A 2.314 2.314 0 0 1 192.442 10 A 2.918 2.918 0 0 1 192.4 10 A 1.801 1.801 0 0 1 191.153 9.502 A 2.481 2.481 0 0 1 191 9.35 A 2.372 2.372 0 0 1 190.585 8.741 A 1.974 1.974 0 0 1 190.4 7.9 Z M 604.025 69.453 A 2.217 2.217 0 0 0 605.7 70.2 A 2.777 2.777 0 0 0 607.33 69.687 A 3.745 3.745 0 0 0 608.1 68.95 Q 609.1 67.7 609.1 66 A 3.788 3.788 0 0 0 609.099 65.925 A 2.977 2.977 0 0 0 608.35 63.95 A 3.009 3.009 0 0 0 608.249 63.841 A 2.351 2.351 0 0 0 606.5 63.1 A 2.756 2.756 0 0 0 604.893 63.623 A 4.153 4.153 0 0 0 604.15 64.3 A 5.062 5.062 0 0 0 604.07 64.394 A 3.97 3.97 0 0 0 603.1 67 Q 603.1 68.3 603.85 69.25 A 3.157 3.157 0 0 0 604.025 69.453 Z" fill="white"/>
<path d="M265.19 33V28.644H269.326V33H265.19Z" fill="#F13024"/>
</svg>
